<?xml version="1.0" encoding="UTF-8"?>
<!DOCTYPE svg PUBLIC "-//W3C//DTD SVG 1.1//EN" "http://www.w3.org/Graphics/SVG/1.1/DTD/svg11.dtd">
<!-- Creator: CorelDRAW 2020 (64-Bit) -->
<svg xmlns="http://www.w3.org/2000/svg" xml:space="preserve" width="930px" height="300px" version="1.1" style="shape-rendering:geometricPrecision; text-rendering:geometricPrecision; image-rendering:optimizeQuality; fill-rule:evenodd; clip-rule:evenodd"
viewBox="0 0 930 300"
 xmlns:xlink="http://www.w3.org/1999/xlink"
 xmlns:xodm="http://www.corel.com/coreldraw/odm/2003">
 <defs>
  <style type="text/css">
   <![CDATA[
    .fil1 {fill:#4471be;fill-rule:nonzero}
    .fil0 {fill:#ffffff;fill-rule:nonzero}
   ]]>
  </style>
 </defs>
 <g id="Capa_x0020_1">
  <metadata id="CorelCorpID_0Corel-Layer"/>
  <g id="_2933736390256">
   <path class="fil0" d="M20.18 69.11l112.58 -40.11 0 49.47c-0.4,0.02 -0.8,0.05 -1.19,0.08 -10.37,0.85 -18.6,3.28 -26.69,7.42 -6.71,3.43 -9.99,6.2 -15.06,10.55l-3.22 3.15c-2.77,2.92 -6.28,7.53 -8.31,10.8 -17.96,28.97 -11.53,65.74 12.12,86.68 3.27,2.89 5.82,4.92 9.63,7.3 3.55,2.21 7.2,4 11.37,5.7 6.7,2.74 13.98,4.22 21.35,4.54l0 56.31 -95.38 -52.94 -17.2 -148.95zm112.58 16.44l0 34.64c-3.23,0.48 -18.5,-2.29 -20.97,-3.57 0.48,-3.09 7.26,-14.04 9.23,-17 1.12,-1.67 6.25,-8.43 7.92,-10.08 0.4,-0.39 0.44,-0.42 0.75,-0.81 0.32,-0.39 2.53,-2.78 3.07,-3.18zm0 41.42l0 1.18c-0.03,-0.55 -0.08,-0.99 -0.16,-1.26 -6.3,-0.43 -11.67,-0.98 -17.72,-2.5 -1.24,-0.31 -4.45,-1.35 -5.43,-1.42 -1.19,2.28 -3.93,15.82 -3.54,18.64l-0.05 1.55 26.9 0.01 0 0.15 -26.99 -0.04c-0.09,-0.58 -0.08,-1.26 0.14,-1.67l-0.05 1.55 26.9 0.01 0 -0.46c-0.02,-2.53 -0.01,-5.07 -0.04,-7.61 0,-0.52 0.02,-1.37 0.04,-2.35l0 9.96c-0.02,-2.53 -0.01,-5.07 -0.04,-7.61 0,-0.52 0.02,-1.37 0.04,-2.35l0 -4.6c-0.03,-0.55 -0.08,-0.99 -0.16,-1.26 0.07,0.06 0.12,0.07 0.16,0.08zm0 22.93l0 0.1 -26.89 0.01 0.07 1.66c-0.27,2.01 0.97,8.63 1.44,10.81 0.67,3.13 1.61,6.75 2.69,9.54 1.58,-0.31 3.33,-0.92 5.01,-1.34 4.21,-1.02 12.87,-2.55 16.8,-2.37l0.86 -0.16 0.02 -18.15 0 18.28 -0.88 0.03 0.86 -0.16 0.02 -18.15 -26.89 0.01 0.07 1.66c-0.25,-0.37 -0.23,-1.28 -0.17,-1.82l26.99 0.05zm0 25.02l0 32.49c-0.62,-0.36 -2.52,-2.51 -2.98,-3.05 -0.3,-0.36 -0.38,-0.4 -0.77,-0.79 -1.58,-1.61 -6.31,-7.83 -7.54,-9.53 -2.23,-3.06 -7.89,-12.28 -8.92,-15.82 4.95,-1.29 15.14,-3.7 20.21,-3.3zm-46.14 8.11l3.92 -2.4c3.15,-1.92 5.3,-2.87 8.59,-4.47 1.43,-0.69 3.08,-1.22 4.56,-1.93 -0.04,-0.83 -1.28,-4.35 -1.6,-5.53 -1.07,-3.81 -1.92,-8.08 -2.42,-12.04 -0.14,-1.17 -0.38,-6.05 -0.64,-6.63 -0.54,-0.29 -21.87,-0.22 -24.29,-0.11 -0.4,4.24 2.35,14.95 3.84,18.53 1.11,2.63 2.2,5.39 3.58,7.75 0.82,1.39 3.65,6.26 4.46,6.83zm-11.87 -39.79c2.32,0.04 23.93,0.25 24.27,-0.1 0.33,-0.67 0.42,-4.79 0.56,-5.96 0.4,-3.59 1.16,-7.81 2.08,-11.27 0.45,-1.7 1.16,-3.7 1.47,-5.3 -2.32,-0.65 -7.04,-2.98 -9.07,-4.13l-6.27 -3.66c-0.77,-0.49 -1.34,-0.96 -2.1,-1.34 -0.03,0.02 -0.07,0.02 -0.08,0.08 -0.01,0.04 -0.07,0.06 -0.08,0.07 -0.02,0.02 -0.06,0.06 -0.08,0.09l-0.33 0.44c-2.56,3.7 -5.4,9.24 -6.84,13.35 -1.31,3.78 -3.99,13.49 -3.53,17.73zm15.04 -37.15c1.17,1.39 12.94,7.66 15.62,8.29l3.6 -7.67c3.5,-6.6 7.68,-13.01 12.44,-18.61 0.25,-0.29 1.16,-1.44 1.26,-1.51 -1.67,-0.09 -8.23,2.36 -9.87,3 -7.05,2.75 -16.47,8.99 -21.45,14.72 -0.51,0.58 -1.15,1.19 -1.6,1.78zm1.1 82.16c2.88,3.69 9.91,8.94 13.88,11.3 2.76,1.62 5.36,2.91 8.42,4.15 1.73,0.71 7.8,2.96 9.68,2.92 -0.24,-0.21 -0.82,-0.97 -1.14,-1.36 -0.39,-0.48 -0.81,-1.01 -1.18,-1.46 -5.29,-6.27 -11.18,-15.88 -14.31,-23.37 -3.37,0.77 -12.96,6.04 -15.35,7.82z"/>
   <path class="fil1" d="M248.37 68.4l-115.61 -39.4 0 49.47c9.41,-0.55 20.56,1.36 28.14,4.55 8.46,3.55 12.07,5.78 18.77,11.05l3.4 2.96c0.41,0.42 0.66,0.75 1.04,1.13 2.32,2.3 3.94,4 6,6.73 8.17,10.79 12.96,22.48 14.08,37.04 0.76,9.8 -1.1,21.26 -4.47,29.4 -2.4,5.8 -5.41,11.63 -9.2,16.42 -2.19,2.77 -5.34,6.54 -8.04,8.89 -4.95,4.32 -8.79,7.3 -15.06,10.56 -10.36,5.4 -22.63,8.01 -34.66,7.49l0 56.31 96.89 -53.57 18.72 -149.03zm-115.61 17.15l0 34.64 0.08 -0.02 0 -34.67c-0.02,0.01 -0.05,0.03 -0.08,0.05zm0 41.42l0 1.18c0.06,1.26 0.03,3.08 0,4.6l0 9.96 0 0.46 0 0 0 0.15 0.07 0 0.07 -15.67c-0.02,-0.78 -0.01,-0.67 -0.14,-0.68zm0 1.18l0 4.6c0.03,-1.52 0.06,-3.34 0,-4.6zm0 14.56l0 0.46 0 0 0 -0.46zm0 7.19l0 0.1 0 18.28 0.06 0 0.07 -18.38 -0.13 0zm0 25.02l0 32.49c0.03,0.02 0.05,0.03 0.08,0.04l0 -32.52 -0.08 -0.01zm36.66 -0.38c1.88,1.02 5.56,2.32 8.46,3.91 1.44,0.79 2.67,1.44 3.98,2.24l3.82 2.33c0.81,-0.54 3.61,-5.38 4.4,-6.72 3.61,-6.09 8.03,-19.83 7.49,-26.37l-23.43 -0.03c-0.67,5.26 -0.3,6.72 -1.59,13.04 -0.41,2.03 -0.88,3.93 -1.42,5.9 -0.33,1.23 -1.65,4.89 -1.71,5.7zm0.51 -54.24c0.25,1.51 1.07,3.69 1.49,5.3 0.49,1.88 0.91,3.66 1.28,5.57 1.12,5.76 0.81,7.55 1.44,12.06 5.88,0.2 15.9,0.08 22.1,0.04l1.33 -0.02c0.43,-4.15 -2.14,-13.63 -3.55,-17.74 -1.08,-3.17 -3.41,-7.9 -5.19,-10.79 -0.36,-0.58 -0.64,-1.05 -1.02,-1.62l-0.95 -1.38c-0.16,-0.18 -0.09,-0.12 -0.24,-0.24 -0.71,0.34 -1.24,0.77 -1.91,1.22l-6.07 3.56c-1.79,0.99 -6.74,3.58 -8.71,4.04zm-29.49 48.01c4.26,-0.18 12.91,1.43 17.41,2.53 1.39,0.34 4.13,1.31 5.31,1.39 0.94,-3.65 1.75,-5.13 2.73,-9.87 0.44,-2.08 1.76,-9.28 1.43,-11.1l0.04 -1.25 -27.81 -0.01 0.02 18.15 0.87 0.16zm-0.94 -41.37l-0.03 16.29 27.95 0.04c0.47,-5.14 -2.31,-15.6 -3.76,-20.58 -1.51,0.26 -3.82,1.09 -5.48,1.51 -3.94,1.01 -8.05,1.73 -12.09,2.2 -2.01,0.23 -4.72,0.2 -6.59,0.54zm-0.03 -6.77c1.84,0.34 9.36,-0.79 11.5,-1.18 3.29,-0.6 7.29,-1.47 10.29,-2.56 -0.29,-1.17 -1.45,-3.34 -1.98,-4.46 -0.74,-1.55 -1.49,-2.84 -2.3,-4.37 -2.62,-4.96 -10.03,-15.31 -14.16,-19.23 -0.68,-0.64 -2.54,-3.16 -3.33,-3.2l-0.02 35zm0 87.83c1.04,0.04 5.02,-4.92 6.22,-6.22 4.22,-4.55 13.08,-17.51 14.87,-23.21 -1.98,-1.44 -17.75,-3.91 -21.07,-3.65l-0.02 33.08zm28.05 -93.88c2.54,-0.57 13.93,-6.77 15,-8.03 -1.02,-1.32 -4.19,-4.42 -5.53,-5.61 -0.36,-0.32 -0.56,-0.42 -0.94,-0.78 -3.69,-3.47 -11.27,-7.97 -15.93,-9.84 -2.12,-0.85 -7.47,-2.97 -9.78,-3.15l2.47 3.01c2.72,3.39 4.58,5.99 7.03,9.75 2.19,3.36 6.38,10.89 7.68,14.65zm-16.95 92.29c7.63,-1.08 18.77,-7.38 24.63,-12.24 2.26,-1.88 4.44,-3.8 6.22,-5.92 -1.66,-1.29 -12.13,-7.14 -14.52,-7.45 -0.61,1.03 -1.11,2.38 -1.62,3.45 -0.57,1.18 -1.19,2.27 -1.82,3.46 -1.2,2.3 -2.56,4.51 -3.92,6.64 -1.89,2.96 -5.39,7.83 -7.79,10.53 -0.25,0.28 -1.02,1.18 -1.18,1.53zm-10.13 -38.1l-0.87 -0.16 -0.02 -18.15 27.81 0.01 -0.04 1.25c0.25,-0.44 0.21,-0.87 0.15,-1.36l-28 -0.05 -0.05 18.4 1.02 0.06z"/>
   <path class="fil1" d="M862.03 162.05l7.72 0 -7.06 55.22 -7.71 0 7.05 -55.22zm-1.57 48.04l14.96 0c3.93,0 6.89,-0.74 8.87,-2.24 1.99,-1.49 3.15,-3.59 3.5,-6.3l0.02 -0.12c0.23,-1.87 0.12,-3.47 -0.35,-4.82 -0.48,-1.34 -1.37,-2.37 -2.66,-3.1 -1.31,-0.71 -3.04,-1.08 -5.22,-1.08l-16.86 0 0.89 -6.98 16.87 0c2.85,0 5.1,-0.68 6.72,-2.01 1.64,-1.35 2.62,-3.33 2.95,-5.97l0 0c0.36,-2.76 -0.2,-4.82 -1.64,-6.19 -1.45,-1.36 -3.79,-2.05 -7.03,-2.05l-15.8 0 0.92 -7.18 17.2 0c3.57,0 6.48,0.61 8.72,1.83 2.26,1.22 3.84,2.93 4.74,5.15 0.91,2.24 1.16,4.89 0.77,7.99l0 0c-0.24,1.89 -0.83,3.67 -1.78,5.33 -0.94,1.66 -2.25,3.07 -3.91,4.25 -1.65,1.18 -3.62,1.97 -5.9,2.37 2.19,0.34 4,1.13 5.47,2.38 1.46,1.25 2.5,2.82 3.12,4.69 0.63,1.88 0.8,3.9 0.52,6.08l-0.02 0.12c-0.38,2.98 -1.38,5.61 -2.99,7.89 -1.6,2.28 -3.72,4.04 -6.32,5.27 -2.61,1.25 -5.56,1.87 -8.83,1.87l-17.85 0 0.92 -7.18zm-41.15 -48.04l31.72 0 -0.94 7.37 -31.72 0 0.94 -7.37zm-3.08 24.12l27.53 0 -0.94 7.37 -27.53 0 0.94 -7.37zm-3.04 23.74l31.73 0 -0.94 7.36 -31.73 0 0.94 -7.36zm2.36 -47.86l7.75 0 -7.05 55.22 -7.75 0 7.05 -55.22zm-42.79 0l5.31 0 5.79 43.3 15.29 -43.3 8.05 0 -20.54 55.22 -7.89 0 -5.25 -38.59 -15.57 38.59 -7.89 0 -6.43 -55.22 8.05 0 4.23 43.3 16.85 -43.3zm-82.4 48.16c2.27,0 4.34,-0.51 6.21,-1.55 1.87,-1.02 3.39,-2.47 4.57,-4.35 1.21,-1.9 1.95,-4.07 2.27,-6.56l2.06 -16.18c0.32,-2.47 0.13,-4.67 -0.59,-6.55 -0.7,-1.89 -1.85,-3.34 -3.46,-4.36 -1.6,-1.03 -3.55,-1.55 -5.81,-1.55 -2.29,0 -4.36,0.52 -6.23,1.55 -1.87,1.02 -3.39,2.47 -4.58,4.36 -1.2,1.88 -1.94,4.08 -2.26,6.55l-2.06 16.18c-0.32,2.49 -0.13,4.66 0.58,6.56 0.71,1.88 1.86,3.33 3.47,4.35 1.6,1.04 3.55,1.55 5.83,1.55zm-0.98 7.63c-3.85,0 -7.14,-0.84 -9.86,-2.53 -2.72,-1.68 -4.68,-4.05 -5.91,-7.14 -1.22,-3.07 -1.56,-6.63 -1.05,-10.68l2 -15.65c0.52,-4.05 1.78,-7.62 3.78,-10.69 2.01,-3.07 4.58,-5.46 7.73,-7.14 3.16,-1.69 6.66,-2.53 10.51,-2.53 3.84,0 7.13,0.84 9.86,2.53 2.71,1.68 4.69,4.07 5.9,7.14 1.22,3.07 1.57,6.64 1.05,10.69l-2 15.65c-0.52,4.05 -1.78,7.61 -3.78,10.68 -2,3.09 -4.58,5.46 -7.73,7.14 -3.16,1.69 -6.66,2.53 -10.5,2.53zm-56.45 -7.93l31.6 0 -0.94 7.36 -31.6 0 0.94 -7.36zm2.24 -47.86l7.75 0 -7.05 55.22 -7.76 0 7.06 -55.22zm-46.82 47.86l31.6 0 -0.94 7.36 -31.6 0 0.94 -7.36zm2.24 -47.86l7.75 0 -7.06 55.22 -7.75 0 7.06 -55.22zm-37.32 48.16c2.27,0 4.34,-0.51 6.21,-1.55 1.87,-1.02 3.39,-2.47 4.58,-4.35 1.2,-1.9 1.95,-4.07 2.26,-6.56l2.07 -16.18c0.32,-2.47 0.13,-4.67 -0.59,-6.55 -0.71,-1.89 -1.85,-3.34 -3.46,-4.36 -1.61,-1.03 -3.55,-1.55 -5.82,-1.55 -2.28,0 -4.36,0.52 -6.22,1.55 -1.87,1.02 -3.39,2.47 -4.58,4.36 -1.2,1.88 -1.95,4.08 -2.26,6.55l-2.07 16.18c-0.32,2.49 -0.13,4.66 0.59,6.56 0.71,1.88 1.85,3.33 3.46,4.35 1.6,1.04 3.55,1.55 5.83,1.55zm-0.97 7.63c-3.85,0 -7.14,-0.84 -9.87,-2.53 -2.71,-1.68 -4.68,-4.05 -5.9,-7.14 -1.22,-3.07 -1.57,-6.63 -1.05,-10.68l1.99 -15.65c0.52,-4.05 1.78,-7.62 3.78,-10.69 2.02,-3.07 4.59,-5.46 7.73,-7.14 3.16,-1.69 6.67,-2.53 10.52,-2.53 3.83,0 7.12,0.84 9.85,2.53 2.71,1.68 4.69,4.07 5.9,7.14 1.22,3.07 1.57,6.64 1.05,10.69l-2 15.65c-0.51,4.05 -1.77,7.61 -3.77,10.68 -2.01,3.09 -4.59,5.46 -7.73,7.14 -3.16,1.69 -6.67,2.53 -10.5,2.53zm-45.77 -25.64l7.94 -1.74 10.7 26.81 -9.19 0 -9.45 -25.07zm-14.56 -30.19l7.75 0 -7.06 55.26 -7.75 0 7.06 -55.26zm0.25 24.54l18.83 0c1.47,0 2.82,-0.35 4.05,-1.06 1.23,-0.72 2.24,-1.71 3.03,-3.03 0.78,-1.3 1.28,-2.79 1.5,-4.49l0 0c0.21,-1.7 0.1,-3.2 -0.35,-4.5 -0.45,-1.31 -1.21,-2.32 -2.25,-3.02 -1.02,-0.71 -2.29,-1.06 -3.79,-1.06l-18.83 0 0.94 -7.38 18.54 0c3.19,0 5.9,0.66 8.16,1.98 2.24,1.31 3.88,3.18 4.9,5.6 1.02,2.41 1.33,5.21 0.92,8.38l0 0c-0.4,3.16 -1.43,5.95 -3.08,8.37 -1.65,2.41 -3.77,4.28 -6.35,5.6 -2.59,1.31 -5.46,1.97 -8.63,1.97l-18.53 0 0.94 -7.36zm-36.39 5.65l7.94 -1.74 10.7 26.81 -9.19 0 -9.45 -25.07zm-14.56 -30.19l7.75 0 -7.06 55.26 -7.75 0 7.06 -55.26zm0.25 24.54l18.83 0c1.47,0 2.82,-0.35 4.05,-1.06 1.23,-0.72 2.24,-1.71 3.03,-3.03 0.78,-1.3 1.28,-2.79 1.5,-4.49l0 0c0.21,-1.7 0.1,-3.2 -0.35,-4.5 -0.45,-1.31 -1.2,-2.32 -2.24,-3.02 -1.03,-0.71 -2.3,-1.06 -3.8,-1.06l-18.83 0 0.94 -7.38 18.54 0c3.19,0 5.9,0.66 8.16,1.98 2.24,1.31 3.88,3.18 4.9,5.6 1.02,2.41 1.33,5.21 0.92,8.38l0 0c-0.4,3.16 -1.43,5.95 -3.08,8.37 -1.65,2.41 -3.77,4.28 -6.35,5.6 -2.59,1.31 -5.46,1.97 -8.63,1.97l-18.53 0 0.94 -7.36zm-51.11 11.24l29.05 0 -0.94 7.36 -29.05 0 0.94 -7.36zm15.54 -35.74l6.6 0 13.31 55.22 -8.36 0 -9.62 -44.55 -20.99 44.55 -8.36 0 27.42 -55.22zm-51.19 55.79c-2.65,0 -5.15,-0.26 -7.46,-0.76 -2.32,-0.51 -4.44,-1.26 -6.38,-2.27 -1.93,-1.03 -3.7,-2.28 -5.3,-3.8l0 0 5.58 -5.92 0 0c1.87,1.81 4.01,3.18 6.42,4.09 2.42,0.91 5.11,1.36 8.07,1.36 4,0 7.19,-0.73 9.58,-2.21 2.4,-1.48 3.77,-3.58 4.11,-6.29l0.01 -0.04c0.24,-1.92 -0.06,-3.45 -0.91,-4.58 -0.87,-1.12 -2.04,-1.95 -3.56,-2.5 -1.51,-0.54 -3.49,-1.05 -5.94,-1.5 -0.07,-0.03 -0.16,-0.04 -0.24,-0.04 -0.09,0 -0.18,-0.01 -0.25,-0.04l-0.55 -0.1c-3.62,-0.64 -6.54,-1.35 -8.74,-2.15 -2.22,-0.81 -4.02,-2.26 -5.4,-4.37 -1.37,-2.12 -1.8,-5.12 -1.31,-9.02l0.01 -0.04c0.44,-3.41 1.57,-6.33 3.41,-8.75 1.84,-2.41 4.32,-4.27 7.41,-5.53 3.1,-1.27 6.71,-1.9 10.85,-1.9 1.97,0 3.88,0.22 5.73,0.65 1.87,0.42 3.66,1.07 5.42,1.91 1.75,0.85 3.44,1.92 5.08,3.22l0 0 -5.2 6.14 0 0c-1.9,-1.54 -3.84,-2.69 -5.84,-3.47 -1.99,-0.77 -4.03,-1.15 -6.13,-1.15 -3.77,0 -6.81,0.75 -9.09,2.25 -2.28,1.5 -3.59,3.65 -3.94,6.4l0 0.04c-0.25,1.9 0.1,3.39 1.03,4.48 0.94,1.09 2.19,1.89 3.73,2.41 1.54,0.52 3.7,1.06 6.49,1.62 0.1,0.02 0.19,0.04 0.28,0.05 0.09,0.01 0.18,0.04 0.28,0.07 0.11,0.02 0.25,0.05 0.4,0.07 0.15,0.03 0.28,0.04 0.41,0.07 3.26,0.68 5.94,1.5 8.06,2.44 2.12,0.93 3.81,2.44 5.05,4.53 1.23,2.09 1.62,4.94 1.16,8.57l-0.01 0.08c-0.43,3.36 -1.59,6.23 -3.49,8.63 -1.91,2.4 -4.45,4.21 -7.63,5.47 -3.2,1.26 -6.92,1.88 -11.2,1.88zm-52.2 -55.79l31.72 0 -0.94 7.37 -31.73 0 0.95 -7.37zm-3.09 24.12l27.54 0 -0.94 7.37 -27.54 0 0.94 -7.37zm-3.03 23.74l31.72 0 -0.94 7.36 -31.72 0 0.94 -7.36zm2.36 -47.86l7.75 0 -7.05 55.22 -7.76 0 7.06 -55.22zm-50.29 0l7.75 0 -7.05 55.22 -7.75 0 7.05 -55.22zm-0.86 47.86l12.5 0c4.07,0 7.37,-1.06 9.87,-3.18 2.51,-2.11 4.02,-5.09 4.51,-8.94l2.07 -16.26c0.5,-3.85 -0.25,-6.83 -2.22,-8.94 -1.96,-2.11 -4.99,-3.17 -9.06,-3.17l-12.5 0 0.94 -7.37 12.27 0c4.43,0 8.12,0.78 11.06,2.32 2.94,1.54 5.05,3.8 6.32,6.75 1.26,2.97 1.62,6.54 1.09,10.72l-2 15.65c-0.53,4.17 -1.8,7.74 -3.83,10.71 -2.02,2.95 -4.71,5.21 -8.07,6.75 -3.35,1.54 -7.23,2.32 -11.67,2.32l-12.22 0 0.94 -7.36z"/>
   <path class="fil0" d="M855.29 94.25l-6.05 50.8 -15.57 0 9.03 -74.64 15.57 0 29.86 51.87 6.33 -51.87 15.36 0 -9.03 74.64 -16.11 0 -29.39 -50.8zm-68.78 38.66c4.43,0 8.47,-1.09 12.12,-3.27 3.64,-2.18 6.61,-5.12 8.9,-8.81 2.3,-3.68 3.8,-7.67 4.49,-11.97 0.62,-4.51 0.31,-8.61 -0.94,-12.3 -1.24,-3.68 -3.38,-6.6 -6.39,-8.75 -3.02,-2.15 -6.82,-3.22 -11.4,-3.22 -4.29,0 -8.26,1.13 -11.9,3.38 -3.64,2.26 -6.62,5.25 -8.95,8.97 -2.34,3.72 -3.82,7.7 -4.44,11.92 -0.69,4.65 -0.41,8.8 0.84,12.46 1.24,3.65 3.37,6.5 6.38,8.54 3.01,2.03 6.78,3.05 11.29,3.05zm-1.95 14.18c-7.58,0 -14.06,-1.68 -19.41,-5.05 -5.35,-3.36 -9.15,-7.93 -11.41,-13.69 -2.25,-5.76 -2.87,-12.26 -1.85,-19.49 0.96,-6.87 3.4,-13.25 7.34,-19.12 3.93,-5.87 9.03,-10.56 15.31,-14.06 6.28,-3.51 13.25,-5.27 20.91,-5.27 7.66,0 14.13,1.69 19.41,5.05 5.28,3.37 9.07,7.97 11.36,13.8 2.29,5.84 2.93,12.37 1.91,19.6 -1.02,7.09 -3.57,13.55 -7.65,19.38 -4.08,5.84 -9.24,10.44 -15.48,13.8 -6.25,3.37 -13.06,5.05 -20.44,5.05zm-77.64 0c-6.8,0 -12.68,-1.18 -17.64,-3.54 -4.95,-2.37 -8.63,-5.57 -11.04,-9.61 -2.41,-4.05 -3.45,-8.54 -3.13,-13.48l15.68 0c0.22,3.94 1.73,7.12 4.54,9.55 2.81,2.44 6.83,3.73 12.07,3.87 5.51,0.15 10.01,-0.7 13.49,-2.52 3.47,-1.83 5.44,-4.28 5.9,-7.36 0.47,-2.79 -0.62,-4.96 -3.25,-6.49 -2.64,-1.54 -7.18,-2.56 -13.65,-3.07 -9.92,-1 -17.22,-3.36 -21.9,-7.08 -4.69,-3.73 -6.58,-8.81 -5.67,-15.25 0.63,-4.23 2.51,-7.99 5.64,-11.28 3.14,-3.29 7.12,-5.85 11.96,-7.68 4.84,-1.82 10.05,-2.74 15.63,-2.74 6.37,0 11.89,1.11 16.55,3.33 4.67,2.22 8.24,5.26 10.71,9.13 2.47,3.87 3.76,8.24 3.87,13.1l-15.79 -0.11c-0.35,-3.5 -1.98,-6.38 -4.89,-8.64 -2.91,-2.25 -6.94,-3.38 -12.1,-3.38 -2.93,0 -5.58,0.41 -7.95,1.23 -2.37,0.83 -4.23,1.95 -5.57,3.39 -1.34,1.43 -2.09,2.97 -2.24,4.61 -0.27,2.37 0.5,4.21 2.3,5.53 1.8,1.33 4.93,2.24 9.39,2.74l2.16 0.22c11.92,1.07 20.3,3.49 25.13,7.25 4.83,3.75 6.9,8.75 6.2,14.98 -0.56,4.29 -2.34,8.21 -5.36,11.76 -3.02,3.54 -7.21,6.35 -12.58,8.43 -5.36,2.07 -11.51,3.11 -18.46,3.11zm-73.02 0c-6.81,0 -12.68,-1.18 -17.64,-3.54 -4.96,-2.37 -8.64,-5.57 -11.04,-9.61 -2.41,-4.05 -3.46,-8.54 -3.14,-13.48l15.68 0c0.22,3.94 1.73,7.12 4.55,9.55 2.81,2.44 6.83,3.73 12.06,3.87 5.52,0.15 10.02,-0.7 13.49,-2.52 3.48,-1.83 5.44,-4.28 5.9,-7.36 0.47,-2.79 -0.61,-4.96 -3.25,-6.49 -2.63,-1.54 -7.18,-2.56 -13.64,-3.07 -9.92,-1 -17.22,-3.36 -21.91,-7.08 -4.68,-3.73 -6.57,-8.81 -5.67,-15.25 0.63,-4.23 2.51,-7.99 5.65,-11.28 3.13,-3.29 7.12,-5.85 11.95,-7.68 4.84,-1.82 10.05,-2.74 15.63,-2.74 6.38,0 11.9,1.11 16.56,3.33 4.66,2.22 8.23,5.26 10.7,9.13 2.48,3.87 3.77,8.24 3.88,13.1l-15.79 -0.11c-0.35,-3.5 -1.98,-6.38 -4.89,-8.64 -2.91,-2.25 -6.95,-3.38 -12.1,-3.38 -2.94,0 -5.59,0.41 -7.96,1.23 -2.36,0.83 -4.22,1.95 -5.56,3.39 -1.34,1.43 -2.09,2.97 -2.24,4.61 -0.28,2.37 0.49,4.21 2.29,5.53 1.81,1.33 4.94,2.24 9.4,2.74l2.15 0.22c11.93,1.07 20.3,3.49 25.13,7.25 4.83,3.75 6.9,8.75 6.2,14.98 -0.55,4.29 -2.34,8.21 -5.36,11.76 -3.02,3.54 -7.21,6.35 -12.57,8.43 -5.36,2.07 -11.52,3.11 -18.46,3.11zm-86.81 -52.84l-6.05 50.8 -15.57 0 9.02 -74.64 15.57 0 29.86 51.87 6.33 -51.87 15.36 0 -9.03 74.64 -16.11 0 -29.38 -50.8zm-76.07 -23.84l51.77 0 -1.67 12.89 -35.76 0 -2.22 18.26 31.36 0 -1.66 13.1 -31.36 0 -2.04 17.18 37.05 0 -1.55 13.21 -53.05 0 9.13 -74.64zm-62.07 0l26.53 0c8.59,0 14.55,1.99 17.89,5.96 3.33,3.98 4.5,8.97 3.51,14.98 -0.99,6.02 -4.74,10.58 -11.25,13.7 -6.51,3.11 -14.59,4.67 -24.26,4.67l-19 0 6.58 -39.31zm18.79 31.58c3.94,0 7.11,-0.81 9.52,-2.42 2.41,-1.61 3.89,-3.92 4.42,-6.93 0.67,-3.15 0.05,-5.6 -1.83,-7.35 -1.9,-1.76 -4.81,-2.63 -8.75,-2.63l-19.65 0 -1.75 19.33 18.04 0zm-3.27 30.28c4.51,0 8.13,-0.82 10.86,-2.47 2.73,-1.64 4.43,-4.12 5.09,-7.41 0.47,-2.79 -0.2,-5.06 -2.02,-6.82 -1.82,-1.75 -4.84,-2.63 -9.07,-2.63l-21.15 0 -2.83 19.33 19.12 0zm-20.89 -61.86l16.11 0 -9.03 74.64 -16.1 0 9.02 -74.64zm0.28 33.3l23.95 0c9.45,0 16.59,1.52 21.43,4.56 4.84,3.04 7.16,7.71 6.97,14.01 -0.07,3.94 -1.35,7.66 -3.83,11.17 -2.48,3.51 -6.01,6.32 -10.58,8.43 -4.58,2.12 -9.8,3.17 -15.67,3.17l-28.57 0 6.3 -41.34zm-55.41 43.38c-10.81,0 -18.96,-3.01 -24.44,-9.02 -5.49,-6.01 -7.46,-15.25 -5.92,-27.71l4.84 -39.95 15.9 0 -4.76 39.42c-0.99,8.02 -0.02,13.76 2.9,17.23 2.92,3.47 7.46,5.21 13.61,5.21 6.23,0 11.28,-1.84 15.16,-5.53 3.87,-3.69 6.27,-9.33 7.2,-16.91l4.76 -39.42 16.32 0 -4.93 40.38c-0.93,7.66 -3.14,14.2 -6.63,19.6 -3.48,5.41 -8.09,9.54 -13.82,12.41 -5.72,2.86 -12.45,4.29 -20.19,4.29zm-67.61 -39.2c4.43,0 8.08,-1.13 10.93,-3.38 2.85,-2.26 4.45,-5.35 4.81,-9.29 0.28,-3.87 -0.72,-6.73 -3.01,-8.59 -2.28,-1.86 -5.54,-2.79 -9.77,-2.79l-12.13 0 -2.86 24.05 12.03 0zm-20.95 -37.48l16.11 0 -9.03 74.64 -16.11 0 9.03 -74.64zm5.47 39.95l4.52 -39.95 16.43 0c6.08,-0.07 11.23,1.01 15.42,3.23 4.2,2.21 7.25,5.19 9.14,8.91 1.9,3.72 2.57,7.84 2.02,12.35 -0.78,6.08 -3.27,11.15 -7.49,15.2 -4.21,4.04 -9.77,6.56 -16.68,7.56l23.25 27.39 -19.54 0 -27.07 -34.69z"/>
  </g>
 </g>
</svg>
